HIERARCHY
ROOT root
{
	OFFSET 0.000000 0.000000 0.000000
	CHANNELS 6 Xposition Yposition Zposition Zrotation Yrotation Xrotation
	JOINT lhip
	{
		OFFSET 0.058581 -0.082280 -0.017664
		CHANNELS 3 Zrotation Yrotation Xrotation
		JOINT lknee
		{
			OFFSET 0.043451 -0.386469 0.008037
			CHANNELS 3 Zrotation Yrotation Xrotation
			JOINT lankle
			{
				OFFSET -0.014790 -0.426874 -0.037428
				CHANNELS 3 Zrotation Yrotation Xrotation
				JOINT ltoe
				{
					OFFSET 0.041054 -0.060286 0.122042
					CHANNELS 3 Zrotation Yrotation Xrotation
					End Site
					{
						OFFSET 0.000000 0.000000 0.000000
					}
				}
			}
		}
	}
	JOINT rhip
	{
		OFFSET -0.060310 -0.090513 -0.013543
		CHANNELS 3 Zrotation Yrotation Xrotation
		JOINT rknee
		{
			OFFSET -0.043257 -0.383688 -0.004843
			CHANNELS 3 Zrotation Yrotation Xrotation
			JOINT rankle
			{
				OFFSET 0.019056 -0.420046 -0.034562
				CHANNELS 3 Zrotation Yrotation Xrotation
				JOINT rtoe
				{
					OFFSET -0.034840 -0.062106 0.130323
					CHANNELS 3 Zrotation Yrotation Xrotation
					End Site
					{
						OFFSET 0.000000 0.000000 0.000000
					}
				}
			}
		}
	}
	JOINT lowerback
	{
		OFFSET 0.004439 0.124404 -0.038385
		CHANNELS 3 Zrotation Yrotation Xrotation
		JOINT upperback
		{
			OFFSET 0.004488 0.137956 0.026820
			CHANNELS 3 Zrotation Yrotation Xrotation
			JOINT chest
			{
				OFFSET -0.002265 0.056032 0.002855
				CHANNELS 3 Zrotation Yrotation Xrotation
				JOINT lowerneck
				{
					OFFSET -0.013390 0.211636 -0.033468
					CHANNELS 3 Zrotation Yrotation Xrotation
					JOINT upperneck
					{
						OFFSET 0.010113 0.088937 0.050410
						CHANNELS 3 Zrotation Yrotation Xrotation
						End Site
						{
							OFFSET 0.000000 0.000000 0.000000
						}
					}
				}
				JOINT lclavicle
				{
					OFFSET 0.071702 0.114000 -0.018898
					CHANNELS 3 Zrotation Yrotation Xrotation
					JOINT lshoulder
					{
						OFFSET 0.122921 0.045205 -0.019046
						CHANNELS 3 Zrotation Yrotation Xrotation
						JOINT lelbow
						{
							OFFSET 0.255332 -0.015649 -0.022946
							CHANNELS 3 Zrotation Yrotation Xrotation
							JOINT lwrist
							{
								OFFSET 0.265709 0.012698 -0.007375
								CHANNELS 3 Zrotation Yrotation Xrotation
								End Site
								{
									OFFSET 0.000000 0.000000 0.000000
								}
							}
						}
					}
				}
				JOINT rclavicle
				{
					OFFSET -0.082954 0.112472 -0.023707
					CHANNELS 3 Zrotation Yrotation Xrotation
					JOINT rshoulder
					{
						OFFSET -0.113228 0.046853 -0.008472
						CHANNELS 3 Zrotation Yrotation Xrotation
						JOINT relbow
						{
							OFFSET -0.260127 -0.014369 -0.031269
							CHANNELS 3 Zrotation Yrotation Xrotation
							JOINT rwrist
							{
								OFFSET -0.269108 0.006794 -0.006027
								CHANNELS 3 Zrotation Yrotation Xrotation
								End Site
								{
									OFFSET 0.000000 0.000000 0.000000
								}
							}
						}
					}
				}
			}
		}
	}
}
MOTION
Frames: 14
Frame Time: 0.033333
-0.143990 -1.568436 0.964205 165.814781 1.815194 85.712873 9.624486 -1.811137 -12.726306 -6.054435 -8.280381 17.560017 -5.364793 3.455120 -11.934815 0.000000 -0.000000 0.000000 1.154141 2.059707 5.753956 0.036802 12.335791 13.533008 -0.694004 1.911864 -28.589775 0.000000 -0.000000 0.000000 -0.430369 2.247155 21.602006 1.378533 -2.188775 5.601909 1.651899 -1.039938 2.188808 -2.323389 9.725225 -7.643183 0.880358 2.094750 -6.217801 -24.839227 3.830401 2.825387 -47.288589 4.697401 12.289105 -0.631175 -55.160486 16.200809 0.099834 -13.731735 -21.023911 21.282264 0.139128 5.607899 49.238837 -4.152823 12.192821 -8.047195 45.189659 7.870095 3.972469 8.795140 -9.313341 
-0.143749 -1.567903 0.964373 165.692871 1.793113 85.590382 9.665575 -1.921341 -12.297247 -6.044919 -8.486181 17.185873 -5.470834 3.584549 -12.060355 0.000000 -0.000000 0.000000 1.152874 1.990738 5.876545 -0.042226 12.373033 13.555312 -0.883036 2.078028 -28.556722 0.000000 -0.000000 0.000000 -0.409612 2.447544 21.639066 1.386501 -2.161037 5.691887 1.697247 -0.961080 2.090283 -2.282196 9.642338 -7.357626 0.930721 2.107440 -6.383867 -24.948624 3.806894 2.831478 -47.221130 4.905387 12.258269 -0.835325 -55.108461 16.015207 -0.246228 -13.750651 -20.438342 21.378620 0.222146 5.613071 49.027305 -4.273804 11.922894 -7.904587 45.124859 7.658101 4.132505 8.723464 -8.838682 
-0.143583 -1.567547 0.964482 165.625815 1.752830 85.506549 9.640531 -1.968517 -12.001086 -6.078338 -9.021603 17.032622 -5.493235 3.769436 -12.127815 0.000000 -0.000000 0.000000 1.151708 2.024137 5.974477 -0.060423 12.481740 13.564000 -1.003960 1.996450 -28.500421 0.000000 -0.000000 0.000000 -0.450856 2.567116 21.555702 1.404304 -2.108840 5.889227 1.722828 -0.869754 1.990515 -2.189133 9.576593 -7.118566 1.008623 2.141550 -6.455762 -24.978965 3.763907 2.950887 -47.239828 5.092077 12.253625 -0.943724 -55.068542 16.119021 -0.262909 -13.686501 -20.423602 21.477379 0.393578 5.718747 48.916690 -4.409770 11.810090 -8.129759 45.111755 7.390415 4.072633 8.710469 -8.903506 
-0.143490 -1.567427 0.964489 165.698277 1.696638 85.471721 9.590364 -2.150485 -11.808612 -6.110549 -9.675676 16.903895 -5.403778 3.902897 -12.212713 0.000000 -0.000000 0.000000 1.123435 2.016152 6.036718 -0.061211 12.596636 13.599276 -1.046843 1.854396 -28.443476 0.000000 -0.000000 0.000000 -0.448842 2.634347 21.402263 1.420454 -2.099953 6.033070 1.711465 -0.798483 1.993178 -2.083649 9.468854 -6.963961 1.065770 2.159755 -6.455011 -24.979475 3.767946 3.065008 -47.305459 5.218430 12.261844 -1.055055 -54.911462 16.317928 -0.264490 -13.567404 -20.511672 21.520349 0.443802 5.740187 48.854102 -4.424230 11.746289 -8.289207 45.072207 7.216276 4.003538 8.676517 -9.013582 
-0.143442 -1.567430 0.964511 165.747356 1.658649 85.441662 9.556949 -2.272212 -11.696068 -6.134266 -10.074179 16.842610 -5.336844 4.008556 -12.261114 0.000000 -0.000000 0.000000 1.096989 2.032147 6.078226 -0.048676 12.653661 13.631596 -1.044354 1.788632 -28.392919 0.000000 -0.000000 0.000000 -0.438830 2.655007 21.340565 1.415533 -2.084604 6.080951 1.696047 -0.753238 2.003983 -2.026896 9.410826 -6.894481 1.099871 2.177786 -6.436598 -24.980514 3.764962 3.117426 -47.377662 5.281784 12.260155 -0.997354 -54.784677 16.334527 -0.263684 -13.508630 -20.551118 21.536604 0.467568 5.743197 48.854464 -4.421303 11.718641 -8.391079 45.022830 7.118294 3.971924 8.670825 -9.082002 
-0.143371 -1.567516 0.964548 165.815252 1.615299 85.381554 9.516941 -2.438044 -11.536365 -6.168390 -10.621535 16.780946 -5.232840 4.184103 -12.338764 0.000000 -0.000000 0.000000 1.068837 2.062645 6.148001 -0.019242 12.718220 13.686812 -1.022178 1.711235 -28.309358 0.000000 -0.000000 0.000000 -0.407704 2.662688 21.299923 1.396309 -2.037843 6.098201 1.665180 -0.683355 2.022827 -1.940805 9.340285 -6.845454 1.146632 2.210055 -6.367813 -24.965403 3.762552 3.163492 -47.514077 5.335715 12.241877 -0.834799 -54.621573 16.280413 -0.241363 -13.465254 -20.588378 21.550568 0.506667 5.733386 48.891782 -4.428283 11.697468 -8.519401 44.927041 7.016972 3.961589 8.693494 -9.151763 
-0.143195 -1.567542 0.964596 165.932613 1.578265 85.340014 9.479146 -2.613549 -11.397419 -6.203283 -11.226125 16.704809 -5.103769 4.354508 -12.424808 0.000000 -0.000000 0.000000 1.044318 2.031063 6.229820 0.010870 12.792379 13.690468 -0.993591 1.601015 -28.251592 0.000000 -0.000000 0.000000 -0.364551 2.660000 21.238346 1.387017 -1.997706 6.052137 1.635739 -0.623913 2.039020 -1.852441 9.304390 -6.874408 1.165341 2.250456 -6.178197 -24.986394 3.801274 3.183937 -47.618286 5.370632 12.210935 -0.695369 -54.475359 16.228356 -0.147272 -13.367676 -20.603110 21.608886 0.504603 5.714858 48.892650 -4.473272 11.700870 -8.598913 44.861917 6.952432 3.961192 8.677406 -9.192273 
-0.142925 -1.567513 0.964688 166.080664 1.532845 85.323822 9.415739 -2.821637 -11.338794 -6.289938 -12.007439 16.694876 -4.965325 4.705387 -12.481555 0.000000 -0.000000 0.000000 1.000405 1.961626 6.322535 0.045477 12.890043 13.631829 -0.987523 1.495339 -28.164942 0.000000 -0.000000 0.000000 -0.337678 2.689728 21.057948 1.413702 -1.975123 6.042624 1.619479 -0.571922 2.058592 -1.775454 9.302976 -6.964612 1.161906 2.293439 -5.941743 -25.017515 3.836767 3.185129 -47.761410 5.365128 12.201732 -0.487826 -54.317112 16.112747 -0.002937 -13.183226 -20.672496 21.676965 0.476303 5.702805 48.903679 -4.502960 11.697001 -8.688849 44.787938 6.901497 3.953773 8.619083 -9.268405 
-0.142420 -1.567377 0.964866 166.193538 1.462233 85.337350 9.356058 -2.928908 -11.292980 -6.363313 -12.471627 16.606495 -4.859630 4.958103 -12.467086 0.000000 -0.000000 0.000000 0.918193 1.903610 6.450695 0.066531 12.937722 13.464932 -0.962112 1.488500 -27.999285 0.000000 -0.000000 0.000000 -0.351569 2.778856 20.730731 1.455579 -1.955124 6.127551 1.610686 -0.513809 2.035950 -1.698938 9.334902 -7.025093 1.160061 2.313707 -5.841086 -25.025056 3.876251 3.194697 -47.923301 5.307858 12.195974 -0.285318 -54.199889 15.963294 0.009271 -13.137551 -20.717003 21.754244 0.431888 5.724081 48.968779 -4.468219 11.693645 -8.837443 44.652228 6.834455 4.022991 8.586986 -9.304701 
-0.141526 -1.566987 0.965232 166.306476 1.383558 85.316599 9.325006 -2.944593 -11.087227 -6.312977 -12.516422 16.266759 -4.791601 4.874951 -12.394203 0.000000 -0.000000 0.000000 0.808693 1.807050 6.736379 0.086904 12.944983 13.105332 -0.894997 1.575215 -27.738865 0.000000 -0.000000 0.000000 -0.347136 2.904559 20.296686 1.492355 -1.948073 6.240590 1.616642 -0.435353 1.947561 -1.622756 9.371946 -7.037731 1.172110 2.310635 -5.814011 -25.032122 3.908515 3.236553 -48.057969 5.266865 12.194091 -0.167593 -54.142499 15.889124 -0.118926 -13.182627 -20.671050 21.878513 0.395641 5.813137 49.010221 -4.427362 11.690430 -8.956769 44.574895 6.802551 4.167838 8.589786 -9.267620 
-0.140792 -1.566816 0.965497 166.396309 1.325086 85.247767 9.298851 -2.966348 -10.880707 -6.232134 -12.516046 15.968801 -4.664737 4.732750 -12.324415 0.000000 -0.000000 0.000000 0.723474 1.716311 7.007770 0.111802 12.959465 12.827530 -0.833168 1.666456 -27.517196 0.000000 -0.000000 0.000000 -0.307927 2.974098 19.984632 1.503546 -1.918202 6.304365 1.612379 -0.385324 1.916210 -1.560310 9.387735 -7.115328 1.152901 2.275843 -5.765027 -24.979597 3.915543 3.255904 -48.162877 5.205596 12.221077 -0.163470 -54.169332 15.918328 -0.209903 -13.203526 -20.689451 21.926782 0.360269 5.824917 49.060623 -4.378426 11.716155 -8.976012 44.617831 6.805457 4.286397 8.589009 -9.269924 
-0.140008 -1.566804 0.965736 166.493595 1.280620 85.076621 9.266222 -2.994339 -10.583161 -6.194059 -12.622728 15.783911 -4.775091 4.773717 -12.234670 0.000000 -0.000000 0.000000 0.704665 1.615100 7.250274 0.121400 12.945282 12.792728 -0.810841 1.732028 -27.389315 0.000000 -0.000000 0.000000 -0.242944 3.018481 19.801970 1.513585 -1.896586 6.351979 1.609163 -0.334764 1.903981 -1.526825 9.404559 -7.203814 1.143599 2.269717 -5.795277 -24.949781 3.865430 3.230302 -48.222772 5.185873 12.245274 -0.156901 -54.287030 15.889576 -0.137970 -13.144581 -20.740140 21.986347 0.360162 5.797669 49.062998 -4.338935 11.711187 -8.940897 44.779423 6.801709 4.294226 8.560089 -9.327790 
-0.139047 -1.567127 0.965798 166.597316 1.192274 84.874146 9.198180 -3.017969 -10.317034 -6.185887 -12.770608 15.680262 -4.890001 4.847812 -12.193152 0.000000 -0.000000 0.000000 0.748559 1.579273 7.292601 0.120089 12.927467 13.218033 -0.800599 1.668923 -27.396219 0.000000 -0.000000 0.000000 -0.258813 3.051563 19.632896 1.533705 -1.883865 6.445885 1.605505 -0.278432 1.924572 -1.474923 9.418404 -7.291773 1.142779 2.248647 -5.885001 -24.918105 3.774969 3.202357 -48.250094 5.125619 12.245610 -0.093208 -54.438871 15.759279 -0.032473 -13.090115 -20.789948 22.048909 0.420180 5.752136 49.086078 -4.256480 11.722778 -8.966806 44.976841 6.736459 4.299473 8.522916 -9.386588 
-0.137903 -1.567922 0.965451 166.679065 1.024765 84.653454 9.072154 -3.054691 -10.116218 -6.177187 -12.850252 15.644878 -4.828127 4.845427 -12.207830 0.000000 -0.000000 0.000000 0.882264 1.729937 6.997288 0.074981 12.871555 14.295526 -0.902131 1.441456 -27.670544 0.000000 -0.000000 0.000000 -0.424843 3.055703 19.511603 1.554162 -1.822707 6.541446 1.610899 -0.224320 1.969392 -1.358056 9.454612 -7.311646 1.137630 2.213864 -6.003038 -24.869394 3.653049 3.206027 -48.241976 5.025063 12.255010 0.116241 -54.591389 15.492594 0.091142 -13.047426 -20.879922 22.092908 0.557274 5.703190 49.196696 -4.124934 11.797885 -9.143111 45.092710 6.571504 4.278463 8.537666 -9.485027 
